<?xml version="1.0" encoding="UTF-8"?>

<svg version="1.2" baseProfile="tiny" width="180.62mm" height="180.62mm" viewBox="0 0 18062 18062" preserveAspectRatio="xMidYMid" fill-rule="evenodd" clip-path="url(#presentation_clip_path)" stroke-width="28.222" stroke-linejoin="round" xmlns="http://www.w3.org/2000/svg" xmlns:ooo="http://xml.openoffice.org/svg/export" xmlns:xlink="http://www.w3.org/1999/xlink" xml:space="preserve">
 <defs class="ClipPathGroup">
  <clipPath id="presentation_clip_path" clipPathUnits="userSpaceOnUse">
   <rect x="0" y="0" width="18062" height="18062"/>
  </clipPath>
 </defs>
 <defs class="TextShapeIndex">
  <g ooo:slide="id1" ooo:id-list="id3 id4 id5 id6 id7 id8 id9 id10 id11"/>
 </defs>
 <defs class="EmbeddedBulletChars">
  <g id="bullet-char-template(57356)" transform="scale(0.00048828125,-0.00048828125)">
   <path d="M 580,1141 L 1163,571 580,0 -4,571 580,1141 Z"/>
  </g>
  <g id="bullet-char-template(57354)" transform="scale(0.00048828125,-0.00048828125)">
   <path d="M 8,1128 L 1137,1128 1137,0 8,0 8,1128 Z"/>
  </g>
  <g id="bullet-char-template(10146)" transform="scale(0.00048828125,-0.00048828125)">
   <path d="M 174,0 L 602,739 174,1481 1456,739 174,0 Z M 1358,739 L 309,1346 659,739 1358,739 Z"/>
  </g>
  <g id="bullet-char-template(10132)" transform="scale(0.00048828125,-0.00048828125)">
   <path d="M 2015,739 L 1276,0 717,0 1260,543 174,543 174,936 1260,936 717,1481 1274,1481 2015,739 Z"/>
  </g>
  <g id="bullet-char-template(10007)" transform="scale(0.00048828125,-0.00048828125)">
   <path d="M 0,-2 C -7,14 -16,27 -25,37 L 356,567 C 262,823 215,952 215,954 215,979 228,992 255,992 264,992 276,990 289,987 310,991 331,999 354,1012 L 381,999 492,748 772,1049 836,1024 860,1049 C 881,1039 901,1025 922,1006 886,937 835,863 770,784 769,783 710,716 594,584 L 774,223 C 774,196 753,168 711,139 L 727,119 C 717,90 699,76 672,76 641,76 570,178 457,381 L 164,-76 C 142,-110 111,-127 72,-127 30,-127 9,-110 8,-76 1,-67 -2,-52 -2,-32 -2,-23 -1,-13 0,-2 Z"/>
  </g>
  <g id="bullet-char-template(10004)" transform="scale(0.00048828125,-0.00048828125)">
   <path d="M 285,-33 C 182,-33 111,30 74,156 52,228 41,333 41,471 41,549 55,616 82,672 116,743 169,778 240,778 293,778 328,747 346,684 L 369,508 C 377,444 397,411 428,410 L 1163,1116 C 1174,1127 1196,1133 1229,1133 1271,1133 1292,1118 1292,1087 L 1292,965 C 1292,929 1282,901 1262,881 L 442,47 C 390,-6 338,-33 285,-33 Z"/>
  </g>
  <g id="bullet-char-template(9679)" transform="scale(0.00048828125,-0.00048828125)">
   <path d="M 813,0 C 632,0 489,54 383,161 276,268 223,411 223,592 223,773 276,916 383,1023 489,1130 632,1184 813,1184 992,1184 1136,1130 1245,1023 1353,916 1407,772 1407,592 1407,412 1353,268 1245,161 1136,54 992,0 813,0 Z"/>
  </g>
  <g id="bullet-char-template(8226)" transform="scale(0.00048828125,-0.00048828125)">
   <path d="M 346,457 C 273,457 209,483 155,535 101,586 74,649 74,723 74,796 101,859 155,911 209,963 273,989 346,989 419,989 480,963 531,910 582,859 608,796 608,723 608,648 583,586 532,535 482,483 420,457 346,457 Z"/>
  </g>
  <g id="bullet-char-template(8211)" transform="scale(0.00048828125,-0.00048828125)">
   <path d="M -4,459 L 1135,459 1135,606 -4,606 -4,459 Z"/>
  </g>
 </defs>
 <defs class="TextEmbeddedBitmaps"/>
 <g>
  <g id="id2" class="Master_Slide">
   <g id="bg-id2" class="Background"/>
   <g id="bo-id2" class="BackgroundObjects"/>
  </g>
 </g>
 <g class="SlideGroup">
  <g>
   <g id="id1" class="Slide" clip-path="url(#presentation_clip_path)">
    <g class="Page">
     <g class="com.sun.star.drawing.ClosedBezierShape">
      <g id="id3">
       <path fill="rgb(255,255,255)" stroke="none" d="M 12895,7782 C 13070,6615 12182,5988 10967,5570 L 11361,3989 10399,3749 10015,5288 C 9762,5225 9502,5166 9244,5107 L 9631,3558 8669,3318 8275,4898 C 8065,4850 7860,4803 7660,4754 L 7661,4749 6334,4417 6078,5445 C 6078,5445 6792,5609 6777,5619 7167,5716 7237,5974 7226,6178 L 6777,7979 C 6804,7986 6838,7996 6877,8011 6845,8003 6810,7994 6775,7986 L 6146,10508 C 6098,10627 5977,10804 5705,10737 5715,10751 5006,10562 5006,10562 L 4528,11663 5780,11976 C 6013,12034 6241,12095 6466,12153 L 6068,13751 7029,13991 7423,12409 C 7686,12481 7941,12546 8190,12608 L 7797,14183 8759,14422 9157,12827 C 10798,13137 12032,13012 12551,11528 12969,10333 12530,9644 11667,9195 12296,9050 12769,8636 12895,7782 Z M 10697,10865 C 10400,12059 8388,11414 7736,11252 L 8264,9134 C 8916,9296 11008,9619 10697,10865 Z M 10995,7765 C 10723,8852 9049,8300 8506,8164 L 8985,6243 C 9528,6379 11277,6631 10995,7765 Z"/>
      </g>
     </g>
     <g class="com.sun.star.drawing.ClosedBezierShape">
      <g id="id4">
       <path fill="rgb(43,182,115)" stroke="none" d="M 17752,9061 C 17752,10704 17387,12104 16585,13526 15783,14952 14787,15974 13398,16797 12012,17621 10648,17995 9047,17995 7443,17995 6079,17621 4693,16797 3304,15974 2308,14952 1506,13526 704,12104 339,10704 339,9061 339,7415 704,6015 1506,4593 2308,3167 3304,2145 4693,1322 6079,498 7443,124 9047,124 10648,124 12012,498 13398,1322 14787,2145 15783,3167 16585,4593 17387,6015 17752,7415 17752,9061 Z"/>
      </g>
     </g>
     <g class="com.sun.star.drawing.ClosedBezierShape">
      <g id="id5">
       <path fill="rgb(0,104,56)" fill-opacity="0.2" stroke="rgb(255,255,255)" stroke-opacity="0.2" d="M 6385,5771 C 6006,5505 5400,5569 4988,5595 4948,5595 3985,5752 4197,5902 4868,6373 5306,7189 5590,8121 4919,8121 4248,8121 3577,8121 3595,8121 3807,8432 3836,8462 3898,8533 4044,8743 4139,8743 4675,8743 5214,8743 5754,8743 5842,9132 5907,9528 5955,9925 5276,9925 4602,9925 3923,9925 3942,9925 4153,10236 4182,10266 4244,10333 4390,10546 4485,10546 4996,10546 5506,10546 6017,10546 6057,11018 6075,11475 6079,11883 6079,12264 8347,12249 8343,11883 8329,9899 7975,6890 6385,5771 Z"/>
      </g>
     </g>
     <g class="com.sun.star.drawing.ClosedBezierShape">
      <g id="id6">
       <path fill="rgb(0,104,56)" fill-opacity="0.2" stroke="rgb(255,255,255)" stroke-opacity="0.2" d="M 9409,5771 C 9034,5505 8425,5569 8013,5595 7973,5595 7010,5756 7221,5902 8775,6995 9088,9951 9103,11883 9107,12264 11371,12249 11368,11883 11353,9899 11003,6886 9409,5771 Z"/>
      </g>
     </g>
     <g class="com.sun.star.drawing.ClosedBezierShape">
      <g id="id7">
       <path fill="rgb(0,104,56)" fill-opacity="0.2" stroke="rgb(255,255,255)" stroke-opacity="0.2" d="M 12338,5771 C 11963,5505 11354,5569 10942,5595 10902,5595 9939,5752 10150,5902 11704,6995 12017,9955 12032,11883 12036,12264 14300,12249 14297,11883 14282,9899 13932,6890 12338,5771 Z"/>
      </g>
     </g>
     <g class="com.sun.star.drawing.ClosedBezierShape">
      <g id="id8">
       <path fill="rgb(255,255,255)" stroke="none" d="M 6312,5696 C 5933,5430 5327,5494 4915,5520 4875,5520 3912,5677 4124,5827 4795,6298 5233,7114 5517,8046 4846,8046 4175,8046 3504,8046 3522,8046 3734,8357 3763,8387 3825,8458 3971,8668 4066,8668 4602,8668 5141,8668 5681,8668 5769,9057 5834,9453 5882,9850 5203,9850 4529,9850 3850,9850 3869,9850 4080,10161 4109,10191 4171,10258 4317,10471 4412,10471 4923,10471 5433,10471 5944,10471 5984,10943 6002,11400 6006,11808 6006,12189 8274,12174 8270,11808 8256,9824 7902,6815 6312,5696 Z"/>
      </g>
     </g>
     <g class="com.sun.star.drawing.ClosedBezierShape">
      <g id="id9">
       <path fill="rgb(255,255,255)" stroke="none" d="M 9336,5696 C 8961,5430 8352,5494 7940,5520 7900,5520 6937,5681 7148,5827 8702,6920 9015,9876 9030,11808 9034,12189 11298,12174 11295,11808 11280,9824 10930,6815 9336,5696 Z"/>
      </g>
     </g>
     <g class="com.sun.star.drawing.ClosedBezierShape">
      <g id="id10">
       <path fill="rgb(255,255,255)" stroke="none" d="M 12265,5696 C 11890,5430 11281,5494 10869,5520 10829,5520 9866,5677 10077,5827 11631,6920 11944,9880 11959,11808 11963,12189 14227,12174 14224,11808 14209,9824 13859,6815 12265,5696 Z"/>
      </g>
     </g>
     <g class="com.sun.star.drawing.CustomShape">
      <g id="id11">
       <path fill="rgb(0,104,56)" stroke="none" d="M 9031,0 C 14151,0 18062,3911 18062,9031 18062,14151 14151,18062 9031,18062 3911,18062 0,14151 0,9031 0,3911 3911,0 9031,0 Z M 9030,1148 C 13499,1148 16912,4561 16912,9030 16912,13499 13499,16912 9030,16912 4561,16912 1148,13499 1148,9030 1148,4561 4561,1148 9030,1148 Z M 0,0 L 0,0 Z M 18063,18063 L 18063,18063 Z"/>
       <path fill="none" stroke="rgb(52,101,164)" d="M 9031,0 C 14151,0 18062,3911 18062,9031 18062,14151 14151,18062 9031,18062 3911,18062 0,14151 0,9031 0,3911 3911,0 9031,0 Z"/>
       <path fill="none" stroke="rgb(52,101,164)" d="M 9030,1148 C 13499,1148 16912,4561 16912,9030 16912,13499 13499,16912 9030,16912 4561,16912 1148,13499 1148,9030 1148,4561 4561,1148 9030,1148 Z"/>
       <path fill="none" stroke="rgb(52,101,164)" d="M 0,0 L 0,0 Z"/>
       <path fill="none" stroke="rgb(52,101,164)" d="M 18063,18063 L 18063,18063 Z"/>
      </g>
     </g>
    </g>
   </g>
  </g>
 </g>
</svg>
